<?xml version="1.0" encoding="UTF-8"?><svg id="Layer_2" xmlns="http://www.w3.org/2000/svg" viewBox="0 0 50.65 56.68"><defs><style>.cls-1{fill:#e5c583;}.cls-1,.cls-2{stroke-width:0px;}.cls-2{fill:#7739ff;}</style></defs><g id="Layer_1-2"><path class="cls-2" d="M34,5.41c-1.96-.79-4.02.95-3.63,3.03.3,1.6.46,3.26.46,4.95h0c0,14.69-11.91,26.6-26.6,26.6-.13,0-.27,0-.4,0-2.13-.03-3.52,2.28-2.4,4.1,4.69,7.56,13.06,12.6,22.61,12.6,14.69,0,26.6-11.91,26.6-26.6h0c0-11.17-6.89-20.73-16.65-24.67Z"/><path class="cls-1" d="M32.96.2c-1.96-.79-4.02.95-3.63,3.03.3,1.6.46,3.26.46,4.95h0c0,14.69-11.91,26.6-26.6,26.6-.13,0-.27,0-.4,0-2.13-.03-3.52,2.28-2.4,4.1,4.69,7.56,13.06,12.6,22.61,12.6,14.69,0,26.6-11.91,26.6-26.6h0c0-11.17-6.89-20.73-16.65-24.67Z"/></g></svg>