<?xml version="1.0" encoding="UTF-8"?><svg id="Layer_2" xmlns="http://www.w3.org/2000/svg" viewBox="0 0 48 48"><defs><style>.cls-1{fill:#c2d2ff;stroke-width:0px;}</style></defs><g id="Layer_1-2"><g id="_Radial_Repeat_"><rect class="cls-1" x="18.39" y="36.47" width="11.51" height="11.51" rx="2.47" ry="2.47" transform="translate(-.32 .18) rotate(-.44)"/></g><g id="_Radial_Repeat_-2"><rect class="cls-1" x="2.54" y="27.48" width="11.51" height="11.51" rx="2.47" ry="2.47" transform="translate(-15.69 8.78) rotate(-30.44)"/></g><g id="_Radial_Repeat_-3"><rect class="cls-1" x="2.4" y="9.26" width="11.51" height="11.51" rx="2.47" ry="2.47" transform="translate(-8.93 14.69) rotate(-60.44)"/></g><g id="_Radial_Repeat_-4"><rect class="cls-1" x="18.11" y=".02" width="11.51" height="11.51" rx="2.47" ry="2.47" transform="translate(-.04 .18) rotate(-.44)"/></g><g id="_Radial_Repeat_-5"><rect class="cls-1" x="33.96" y="9.02" width="11.51" height="11.51" rx="2.47" ry="2.47" transform="translate(-2.01 22.15) rotate(-30.44)"/></g><g id="_Radial_Repeat_-6"><rect class="cls-1" x="34.1" y="27.24" width="11.51" height="11.51" rx="2.47" ry="2.47" transform="translate(-8.51 51.38) rotate(-60.44)"/></g><path class="cls-1" d="M24,7.83h0c-8.97,0-16.24,7.27-16.24,16.24h0c0,8.97,7.27,16.24,16.24,16.24h0c8.97,0,16.24-7.27,16.24-16.24h0c0-8.97-7.27-16.24-16.24-16.24ZM32.57,23.94c0,4.66-3.78,8.44-8.44,8.44h0c-4.66,0-8.44-3.78-8.44-8.44h0c0-4.66,3.78-8.44,8.44-8.44h0c4.66,0,8.44,3.78,8.44,8.44h0Z"/></g></svg>