<?xml version="1.0" encoding="UTF-8"?><svg id="Layer_2" xmlns="http://www.w3.org/2000/svg" viewBox="0 0 292.97 70.12"><defs><style>.cls-1{fill:#c2d2ff;}.cls-1,.cls-2{stroke-width:0px;}.cls-2{fill:#7739ff;}</style></defs><g id="Layer_1-2"><path class="cls-1" d="M17.32,50.09c-2.91,0-5.54-.36-7.87-1.09-2.33-.73-4.56-2.01-6.68-3.84-.54-.46-.96-.98-1.25-1.56-.29-.58-.44-1.17-.44-1.75,0-.96.34-1.8,1.03-2.53.69-.73,1.55-1.09,2.59-1.09.79,0,1.5.25,2.12.75,1.58,1.29,3.15,2.27,4.72,2.94,1.56.67,3.49,1,5.78,1,1.54,0,2.96-.24,4.25-.72,1.29-.48,2.33-1.12,3.12-1.94.79-.81,1.19-1.74,1.19-2.78,0-1.25-.37-2.31-1.12-3.18-.75-.88-1.9-1.61-3.44-2.22-1.54-.6-3.5-1.07-5.87-1.41-2.25-.33-4.23-.84-5.93-1.53-1.71-.69-3.13-1.56-4.28-2.62-1.15-1.06-2.01-2.31-2.59-3.75-.58-1.44-.87-3.05-.87-4.84,0-2.71.7-5.02,2.09-6.93,1.39-1.91,3.28-3.37,5.65-4.37,2.37-1,5-1.5,7.87-1.5,2.71,0,5.21.41,7.53,1.22,2.31.81,4.19,1.84,5.65,3.09,1.21.96,1.81,2.06,1.81,3.31,0,.92-.35,1.75-1.06,2.5-.71.75-1.54,1.12-2.5,1.12-.62,0-1.19-.19-1.69-.56-.67-.58-1.56-1.13-2.69-1.66-1.12-.52-2.31-.96-3.56-1.31-1.25-.35-2.42-.53-3.5-.53-1.79,0-3.3.23-4.53.69-1.23.46-2.15,1.08-2.78,1.87-.62.79-.94,1.71-.94,2.75,0,1.25.36,2.28,1.09,3.09.73.81,1.78,1.46,3.15,1.94s3.02.91,4.93,1.28c2.5.46,4.69,1,6.59,1.62,1.89.62,3.47,1.43,4.72,2.4,1.25.98,2.19,2.21,2.81,3.69.62,1.48.94,3.28.94,5.4,0,2.71-.75,5.04-2.25,7-1.5,1.96-3.47,3.46-5.9,4.5-2.44,1.04-5.07,1.56-7.9,1.56Z"/><path class="cls-1" d="M73.72,5.75c1,0,1.81.33,2.44,1,.62.67.94,1.5.94,2.5v36.41c0,1.08-.37,1.99-1.09,2.72-.73.73-1.63,1.09-2.72,1.09-.54,0-1.09-.09-1.65-.28s-.99-.45-1.28-.78l-24.54-31.17,1.62-1v29.73c0,1-.32,1.83-.97,2.5-.65.67-1.49,1-2.53,1s-1.81-.33-2.44-1c-.62-.67-.94-1.5-.94-2.5V9.56c0-1.08.36-1.99,1.09-2.72.73-.73,1.63-1.09,2.72-1.09.58,0,1.19.12,1.81.34.62.23,1.08.57,1.37,1.03l23.79,30.35-1.06.75V9.25c0-1,.31-1.83.94-2.5.62-.67,1.46-1,2.5-1Z"/><path class="cls-1" d="M126.68,27.61c0,3.12-.52,6.04-1.56,8.74-1.04,2.71-2.51,5.09-4.4,7.15-1.9,2.06-4.14,3.67-6.75,4.84-2.6,1.17-5.44,1.75-8.52,1.75s-5.91-.58-8.49-1.75c-2.58-1.17-4.82-2.78-6.71-4.84-1.9-2.06-3.36-4.44-4.4-7.15-1.04-2.71-1.56-5.62-1.56-8.74s.52-6.04,1.56-8.74c1.04-2.71,2.51-5.09,4.4-7.15,1.89-2.06,4.13-3.67,6.71-4.84,2.58-1.17,5.41-1.75,8.49-1.75s5.92.58,8.52,1.75c2.6,1.17,4.85,2.78,6.75,4.84,1.89,2.06,3.36,4.45,4.4,7.15,1.04,2.71,1.56,5.62,1.56,8.74ZM118.56,27.61c0-2.79-.56-5.32-1.69-7.59-1.12-2.27-2.67-4.07-4.62-5.4-1.96-1.33-4.23-2-6.81-2s-4.85.67-6.81,2c-1.96,1.33-3.49,3.12-4.59,5.37-1.1,2.25-1.65,4.79-1.65,7.62s.55,5.32,1.65,7.59c1.1,2.27,2.63,4.07,4.59,5.4,1.96,1.33,4.23,2,6.81,2s4.85-.67,6.81-2c1.96-1.33,3.5-3.13,4.62-5.4,1.12-2.27,1.69-4.8,1.69-7.59Z"/><path class="cls-1" d="M174.08,27.61c0,3.12-.52,6.04-1.56,8.74-1.04,2.71-2.51,5.09-4.4,7.15-1.9,2.06-4.14,3.67-6.74,4.84-2.6,1.17-5.44,1.75-8.53,1.75s-5.91-.58-8.49-1.75c-2.58-1.17-4.82-2.78-6.71-4.84-1.9-2.06-3.36-4.44-4.4-7.15-1.04-2.71-1.56-5.62-1.56-8.74s.52-6.04,1.56-8.74c1.04-2.71,2.51-5.09,4.4-7.15,1.89-2.06,4.13-3.67,6.71-4.84,2.58-1.17,5.41-1.75,8.49-1.75s5.92.58,8.53,1.75c2.6,1.17,4.85,2.78,6.74,4.84,1.89,2.06,3.36,4.45,4.4,7.15,1.04,2.71,1.56,5.62,1.56,8.74ZM165.96,27.61c0-2.79-.56-5.32-1.69-7.59-1.12-2.27-2.67-4.07-4.62-5.4-1.96-1.33-4.23-2-6.81-2s-4.85.67-6.81,2c-1.96,1.33-3.49,3.12-4.59,5.37-1.1,2.25-1.65,4.79-1.65,7.62s.55,5.32,1.65,7.59c1.1,2.27,2.63,4.07,4.59,5.4,1.96,1.33,4.23,2,6.81,2s4.85-.67,6.81-2c1.96-1.33,3.5-3.13,4.62-5.4,1.12-2.27,1.69-4.8,1.69-7.59Z"/><path class="cls-1" d="M209.86,5.75c.92,0,1.82.33,2.72,1,.89.67,1.34,1.56,1.34,2.69,0,.79-.29,1.58-.87,2.37l-23.92,30.73-.75-.25h20.86c1.08,0,1.99.32,2.72.97.73.65,1.09,1.51,1.09,2.59s-.37,1.91-1.09,2.59c-.73.69-1.63,1.03-2.72,1.03h-27.42c-1.08,0-2.02-.38-2.81-1.16-.79-.77-1.19-1.61-1.19-2.53,0-.79.29-1.58.88-2.37l23.98-30.85.56.38h-18.92c-1.08,0-1.99-.33-2.72-1-.73-.67-1.09-1.54-1.09-2.62s.36-1.95,1.09-2.59c.73-.64,1.63-.97,2.72-.97h25.54Z"/><path class="cls-1" d="M218.14,14.75l20.23-5.32c1.05-.28,2.01-.17,2.89.31.88.48,1.46,1.24,1.73,2.29.26,1.01.13,1.92-.41,2.72-.54.81-1.33,1.35-2.38,1.63l-16.91,4.45.27-1.17,3.1,11.78-.61-.36,14.13-3.72c1.05-.28,2.01-.17,2.89.3.88.48,1.46,1.24,1.73,2.29.26,1.01.13,1.92-.41,2.72-.54.81-1.33,1.35-2.38,1.63l-13.95,3.67.17-.56,3.21,12.2-.63-.42,16.85-4.43c1.05-.28,2.02-.15,2.91.37.89.52,1.46,1.24,1.7,2.17.26,1.01.13,1.92-.41,2.75-.54.83-1.33,1.38-2.37,1.66l-20.23,5.32c-1.05.28-2.02.15-2.91-.37-.89-.52-1.47-1.3-1.75-2.35l-9.18-34.91c-.28-1.05-.15-2.02.37-2.91s1.3-1.47,2.35-1.75Z"/><path class="cls-1" d="M258.78,65.72c-1.15-.18-2.13-.7-2.92-1.56-.79-.86-1.11-1.82-.95-2.89l5.5-35.68c.16-1.07.66-1.91,1.49-2.52.83-.61,1.78-.83,2.85-.67l17.78,2.74c2.14.33,4.06,1.2,5.76,2.62,1.7,1.42,2.97,3.22,3.81,5.39.84,2.17,1.07,4.56.67,7.15-.24,1.56-.79,3.04-1.66,4.42s-1.94,2.59-3.21,3.61c-1.27,1.03-2.64,1.76-4.1,2.21l.28-1.41c1.06.79,1.9,1.67,2.53,2.63.63.96,1.09,1.96,1.37,2.99s.38,2.11.29,3.24c0,1.05-.02,1.98-.08,2.77-.06.79-.04,1.47.07,2.03.1.56.4,1.03.89,1.4.82.67,1.27,1.53,1.34,2.58.07,1.04-.3,1.9-1.12,2.58-.54.47-1.16.72-1.88.75-.72.04-1.42-.07-2.1-.32-.68-.25-1.22-.54-1.64-.85-.64-.52-1.24-1.23-1.82-2.14-.58-.91-.98-2.08-1.2-3.5-.22-1.42-.17-3.21.16-5.35.11-.7.08-1.37-.07-2-.15-.63-.43-1.2-.81-1.71-.39-.5-.91-.92-1.58-1.25-.67-.33-1.47-.57-2.42-.72l-12.47-1.92,1.14-1.28-2.06,13.39c-.17,1.07-.59,1.92-1.28,2.55-.69.63-1.54.87-2.57.71ZM264.59,44l14.38,2.21c.74.11,1.51-.11,2.32-.69s1.52-1.41,2.16-2.51c.63-1.1,1.06-2.35,1.27-3.75.28-1.81.03-3.4-.75-4.76-.78-1.36-1.73-2.13-2.84-2.3l-14.26-2.2,1.04-1.86-2.69,17.47-.64-1.62Z"/><path class="cls-2" d="M16.24,44.97c-2.92,0-5.54-.36-7.87-1.09-2.33-.73-4.56-2.01-6.68-3.84-.54-.46-.96-.98-1.25-1.56-.29-.58-.44-1.17-.44-1.75,0-.96.34-1.8,1.03-2.53.69-.73,1.55-1.09,2.59-1.09.79,0,1.5.25,2.12.75,1.58,1.29,3.15,2.27,4.72,2.94,1.56.67,3.49,1,5.78,1,1.54,0,2.96-.24,4.25-.72,1.29-.48,2.33-1.12,3.12-1.94.79-.81,1.19-1.74,1.19-2.78,0-1.25-.37-2.31-1.12-3.18-.75-.88-1.9-1.61-3.44-2.22-1.54-.6-3.5-1.07-5.87-1.4-2.25-.33-4.23-.84-5.93-1.53-1.71-.69-3.13-1.56-4.28-2.62-1.15-1.06-2.01-2.31-2.59-3.75-.58-1.44-.87-3.05-.87-4.84,0-2.71.7-5.02,2.09-6.93,1.39-1.91,3.28-3.37,5.65-4.37,2.37-1,5-1.5,7.87-1.5,2.71,0,5.21.41,7.53,1.22,2.31.81,4.19,1.84,5.65,3.09,1.21.96,1.81,2.06,1.81,3.31,0,.92-.35,1.75-1.06,2.5-.71.75-1.54,1.12-2.5,1.12-.62,0-1.19-.19-1.69-.56-.67-.58-1.56-1.13-2.69-1.66-1.12-.52-2.31-.96-3.56-1.31-1.25-.35-2.42-.53-3.5-.53-1.79,0-3.3.23-4.53.69-1.23.46-2.15,1.08-2.78,1.87-.62.79-.94,1.71-.94,2.75,0,1.25.36,2.28,1.09,3.09.73.81,1.78,1.46,3.15,1.94s3.02.91,4.93,1.28c2.5.46,4.69,1,6.59,1.62,1.89.62,3.47,1.43,4.72,2.4,1.25.98,2.19,2.21,2.81,3.68.62,1.48.94,3.28.94,5.4,0,2.71-.75,5.04-2.25,7-1.5,1.96-3.47,3.46-5.9,4.5-2.44,1.04-5.07,1.56-7.9,1.56Z"/><path class="cls-2" d="M72.63.62c1,0,1.81.33,2.44,1,.62.67.94,1.5.94,2.5v36.41c0,1.08-.37,1.99-1.09,2.72-.73.73-1.63,1.09-2.72,1.09-.54,0-1.09-.09-1.65-.28s-.99-.45-1.28-.78l-24.54-31.17,1.62-1v29.73c0,1-.32,1.83-.97,2.5-.65.67-1.49,1-2.53,1s-1.81-.33-2.44-1c-.62-.67-.94-1.5-.94-2.5V4.43c0-1.08.36-1.99,1.09-2.72.73-.73,1.63-1.09,2.72-1.09.58,0,1.19.12,1.81.34.62.23,1.08.57,1.37,1.03l23.79,30.35-1.06.75V4.12c0-1,.31-1.83.94-2.5.62-.67,1.46-1,2.5-1Z"/><path class="cls-2" d="M125.59,22.48c0,3.12-.52,6.04-1.56,8.74-1.04,2.71-2.51,5.09-4.4,7.15-1.9,2.06-4.14,3.67-6.74,4.84-2.6,1.17-5.44,1.75-8.53,1.75s-5.91-.58-8.49-1.75c-2.58-1.17-4.82-2.78-6.71-4.84-1.9-2.06-3.36-4.44-4.4-7.15-1.04-2.71-1.56-5.62-1.56-8.74s.52-6.04,1.56-8.74c1.04-2.71,2.51-5.09,4.4-7.15,1.89-2.06,4.13-3.67,6.71-4.84,2.58-1.16,5.41-1.75,8.49-1.75s5.92.58,8.53,1.75c2.6,1.17,4.85,2.78,6.74,4.84,1.89,2.06,3.36,4.45,4.4,7.15,1.04,2.71,1.56,5.62,1.56,8.74ZM117.47,22.48c0-2.79-.56-5.32-1.69-7.59-1.12-2.27-2.66-4.07-4.62-5.4-1.96-1.33-4.23-2-6.81-2s-4.85.67-6.81,2c-1.96,1.33-3.49,3.12-4.59,5.37-1.1,2.25-1.65,4.79-1.65,7.62s.55,5.32,1.65,7.59c1.1,2.27,2.63,4.07,4.59,5.4,1.96,1.33,4.23,2,6.81,2s4.85-.67,6.81-2c1.96-1.33,3.5-3.13,4.62-5.4,1.12-2.27,1.69-4.8,1.69-7.59Z"/><path class="cls-2" d="M173,22.48c0,3.12-.52,6.04-1.56,8.74-1.04,2.71-2.51,5.09-4.4,7.15-1.9,2.06-4.14,3.67-6.74,4.84-2.6,1.17-5.44,1.75-8.53,1.75s-5.91-.58-8.49-1.75c-2.58-1.17-4.82-2.78-6.71-4.84-1.9-2.06-3.36-4.44-4.4-7.15-1.04-2.71-1.56-5.62-1.56-8.74s.52-6.04,1.56-8.74c1.04-2.71,2.51-5.09,4.4-7.15,1.89-2.06,4.13-3.67,6.71-4.84,2.58-1.16,5.41-1.75,8.49-1.75s5.92.58,8.53,1.75c2.6,1.17,4.85,2.78,6.74,4.84,1.89,2.06,3.36,4.45,4.4,7.15,1.04,2.71,1.56,5.62,1.56,8.74ZM164.88,22.48c0-2.79-.56-5.32-1.69-7.59s-2.66-4.07-4.62-5.4c-1.96-1.33-4.23-2-6.81-2s-4.85.67-6.81,2c-1.96,1.33-3.49,3.12-4.59,5.37-1.1,2.25-1.65,4.79-1.65,7.62s.55,5.32,1.65,7.59c1.1,2.27,2.63,4.07,4.59,5.4,1.96,1.33,4.23,2,6.81,2s4.85-.67,6.81-2c1.96-1.33,3.5-3.13,4.62-5.4,1.12-2.27,1.69-4.8,1.69-7.59Z"/><path class="cls-2" d="M208.78.62c.91,0,1.82.33,2.72,1,.89.67,1.34,1.56,1.34,2.69,0,.79-.29,1.58-.87,2.37l-23.92,30.73-.75-.25h20.86c1.08,0,1.99.32,2.72.97.73.65,1.09,1.51,1.09,2.59s-.37,1.91-1.09,2.59c-.73.69-1.63,1.03-2.72,1.03h-27.42c-1.08,0-2.02-.38-2.81-1.16s-1.19-1.61-1.19-2.53c0-.79.29-1.58.88-2.37l23.98-30.85.56.38h-18.92c-1.08,0-1.99-.33-2.72-1s-1.09-1.54-1.09-2.62.37-1.95,1.09-2.59c.73-.64,1.63-.97,2.72-.97h25.54Z"/><path class="cls-2" d="M217.06,9.62l20.23-5.32c1.05-.28,2.01-.17,2.89.31.88.48,1.46,1.24,1.73,2.29.26,1.01.13,1.92-.41,2.72-.54.81-1.33,1.35-2.38,1.63l-16.91,4.45.27-1.17,3.1,11.78-.61-.36,14.13-3.72c1.05-.28,2.01-.17,2.89.3.88.48,1.46,1.24,1.73,2.29.26,1.01.13,1.92-.41,2.72-.54.81-1.33,1.35-2.38,1.63l-13.95,3.67.17-.56,3.21,12.2-.63-.42,16.85-4.43c1.05-.28,2.01-.15,2.9.37.89.52,1.46,1.24,1.7,2.17.26,1.01.13,1.92-.41,2.75-.54.83-1.33,1.38-2.37,1.66l-20.23,5.32c-1.05.28-2.02.15-2.91-.37-.89-.52-1.47-1.3-1.75-2.35l-9.18-34.91c-.28-1.05-.15-2.02.37-2.91s1.3-1.47,2.35-1.75Z"/><path class="cls-2" d="M257.7,60.6c-1.15-.18-2.13-.7-2.92-1.56-.79-.86-1.11-1.82-.95-2.89l5.5-35.68c.16-1.07.66-1.91,1.49-2.52.83-.61,1.78-.83,2.85-.67l17.78,2.74c2.14.33,4.06,1.2,5.76,2.62,1.7,1.42,2.97,3.22,3.81,5.39.84,2.17,1.07,4.56.67,7.15-.24,1.56-.79,3.04-1.66,4.42s-1.94,2.59-3.21,3.61c-1.27,1.03-2.64,1.76-4.1,2.21l.28-1.41c1.06.79,1.9,1.67,2.53,2.63.63.96,1.09,1.96,1.37,2.99s.38,2.11.29,3.24c0,1.05-.02,1.98-.08,2.77-.06.79-.04,1.47.07,2.03.1.56.4,1.03.89,1.4.82.67,1.27,1.53,1.34,2.58.07,1.04-.3,1.9-1.12,2.58-.54.47-1.16.72-1.88.75-.72.04-1.42-.07-2.1-.32-.68-.25-1.22-.54-1.64-.85-.64-.52-1.24-1.23-1.82-2.14-.58-.91-.98-2.08-1.2-3.5-.22-1.42-.17-3.21.16-5.35.11-.7.08-1.37-.07-2-.15-.63-.43-1.2-.81-1.71-.39-.5-.91-.92-1.58-1.25-.67-.33-1.47-.57-2.42-.72l-12.47-1.92,1.14-1.28-2.06,13.39c-.17,1.07-.59,1.92-1.28,2.55-.69.63-1.54.87-2.57.71ZM263.51,38.87l14.38,2.21c.74.11,1.51-.11,2.32-.69s1.52-1.41,2.16-2.51c.63-1.1,1.06-2.35,1.27-3.75.28-1.81.03-3.4-.75-4.76-.78-1.36-1.73-2.13-2.84-2.3l-14.26-2.2,1.04-1.86-2.69,17.47-.64-1.62Z"/></g></svg>