<?xml version="1.0" encoding="UTF-8"?><svg id="Layer_2" xmlns="http://www.w3.org/2000/svg" viewBox="0 0 58.78 62.69"><defs><style>.cls-1{fill:#e5c583;}.cls-1,.cls-2{stroke-width:0px;}.cls-2{fill:#7739ff;}</style></defs><g id="Layer_1-2"><rect class="cls-2" x="11.43" y="15.35" width="36" height="36" rx="18" ry="18"/><g id="_Radial_Repeat_"><path class="cls-2" d="M31.61,61.63l5.57-9.12c.9-1.48-.17-3.38-1.91-3.36l-11.33.12c-1.74.02-2.77,1.94-1.84,3.4l5.76,9c.88,1.38,2.9,1.35,3.75-.04Z"/></g><g id="_Radial_Repeat_-2"><path class="cls-2" d="M10.97,54.89l10.39-2.51c1.69-.41,2.27-2.51,1.03-3.73l-8.1-7.93c-1.24-1.21-3.33-.59-3.71,1.11l-2.29,10.44c-.35,1.6,1.09,3.01,2.68,2.62Z"/></g><g id="_Radial_Repeat_-3"><path class="cls-2" d="M1.15,35.52l9.12,5.57c1.48.9,3.38-.17,3.36-1.91l-.12-11.33c-.02-1.74-1.94-2.77-3.4-1.84L1.11,31.77c-1.38.88-1.35,2.9.04,3.75Z"/></g><g id="_Radial_Repeat_-4"><path class="cls-2" d="M7.89,14.88l2.51,10.39c.41,1.69,2.51,2.27,3.73,1.03l7.93-8.1c1.21-1.24.59-3.33-1.11-3.71l-10.44-2.29c-1.6-.35-3.01,1.09-2.62,2.68Z"/></g><g id="_Radial_Repeat_-5"><path class="cls-2" d="M27.26,5.06l-5.57,9.12c-.9,1.48.17,3.38,1.91,3.36l11.33-.12c1.74-.02,2.77-1.94,1.84-3.4l-5.76-9c-.88-1.38-2.9-1.35-3.75.04Z"/></g><g id="_Radial_Repeat_-6"><path class="cls-2" d="M47.9,11.81l-10.39,2.51c-1.69.41-2.27,2.51-1.03,3.73l8.1,7.93c1.24,1.21,3.33.59,3.71-1.11l2.29-10.44c.35-1.6-1.09-3.01-2.68-2.62Z"/></g><g id="_Radial_Repeat_-7"><path class="cls-2" d="M57.72,31.17l-9.12-5.57c-1.48-.9-3.38.17-3.36,1.91l.12,11.33c.02,1.74,1.94,2.77,3.4,1.84l9-5.76c1.38-.88,1.35-2.9-.04-3.75Z"/></g><g id="_Radial_Repeat_-8"><path class="cls-2" d="M50.97,51.81l-2.51-10.39c-.41-1.69-2.51-2.27-3.73-1.03l-7.93,8.1c-1.21,1.24-.59,3.33,1.11,3.71l10.44,2.29c1.6.35,3.01-1.09,2.62-2.68Z"/></g><rect class="cls-1" x="11.35" y="11.35" width="36" height="36" rx="18" ry="18"/><g id="_Radial_Repeat_-9"><path class="cls-1" d="M31.52,57.63l5.57-9.12c.9-1.48-.17-3.38-1.91-3.36l-11.33.12c-1.74.02-2.77,1.94-1.84,3.4l5.76,9c.88,1.38,2.9,1.35,3.75-.04Z"/></g><g id="_Radial_Repeat_-10"><path class="cls-1" d="M10.88,50.89l10.39-2.51c1.69-.41,2.27-2.51,1.03-3.73l-8.1-7.93c-1.24-1.21-3.33-.59-3.71,1.11l-2.29,10.44c-.35,1.6,1.09,3.01,2.68,2.62Z"/></g><g id="_Radial_Repeat_-11"><path class="cls-1" d="M1.06,31.52l9.12,5.57c1.48.9,3.38-.17,3.36-1.91l-.12-11.33c-.02-1.74-1.94-2.77-3.4-1.84L1.02,27.77c-1.38.88-1.35,2.9.04,3.75Z"/></g><g id="_Radial_Repeat_-12"><path class="cls-1" d="M7.81,10.88l2.51,10.39c.41,1.69,2.51,2.27,3.73,1.03l7.93-8.1c1.21-1.24.59-3.33-1.11-3.71l-10.44-2.29c-1.6-.35-3.01,1.09-2.62,2.68Z"/></g><g id="_Radial_Repeat_-13"><path class="cls-1" d="M27.17,1.06l-5.57,9.12c-.9,1.48.17,3.38,1.91,3.36l11.33-.12c1.74-.02,2.77-1.94,1.84-3.4L30.92,1.02c-.88-1.38-2.9-1.35-3.75.04Z"/></g><g id="_Radial_Repeat_-14"><path class="cls-1" d="M47.81,7.81l-10.39,2.51c-1.69.41-2.27,2.51-1.03,3.73l8.1,7.93c1.24,1.21,3.33.59,3.71-1.11l2.29-10.44c.35-1.6-1.09-3.01-2.68-2.62Z"/></g><g id="_Radial_Repeat_-15"><path class="cls-1" d="M57.63,27.17l-9.12-5.57c-1.48-.9-3.38.17-3.36,1.91l.12,11.33c.02,1.74,1.94,2.77,3.4,1.84l9-5.76c1.38-.88,1.35-2.9-.04-3.75Z"/></g><g id="_Radial_Repeat_-16"><path class="cls-1" d="M50.89,47.81l-2.51-10.39c-.41-1.69-2.51-2.27-3.73-1.03l-7.93,8.1c-1.21,1.24-.59,3.33,1.11,3.71l10.44,2.29c1.6.35,3.01-1.09,2.62-2.68Z"/></g></g></svg>